Coordinates
version=1
nRows=13
nColumns=22
inDegrees=yes

Units are S.I. units (second, meters, Newtons, ...)
If the header above contains a line with 'inDegrees', this indicates whether rotational values are in degrees (yes) or radians (no).

endheader
time	pelvis_tilt	pelvis_list	pelvis_rotation	pelvis_tx	pelvis_ty	pelvis_tz	hip_flexion_r	hip_adduction_r	hip_rotation_r	knee_angle_r	ankle_angle_r	subtalar_angle_r	hip_flexion_l	hip_adduction_l	hip_rotation_l	knee_angle_l	ankle_angle_l	subtalar_angle_l	lumbar_extension	lumbar_bending	lumbar_rotation
      3.68000000	     -1.36385988	     -0.85850849	     24.31148419	     -0.18722006	      0.94384472	     -0.43416995	     25.95524732	      3.89100786	     -1.22188277	    -62.79943257	      6.17713224	     -1.06912447	     14.99292099	     -1.75512124	      9.83967501	    -24.59000292	     11.08851299	      1.83686004	     -7.71854246	     -2.21839425	     -0.15799907
      3.69000000	     -1.15650867	     -0.89624929	     23.78014736	     -0.18025217	      0.94499918	     -0.43689347	     26.64326146	      3.57480227	     -2.09534435	    -61.56065535	      6.75856637	     -1.44455441	     13.96884118	     -2.01675517	      9.34067955	    -24.13920497	     11.40159722	      1.68073376	     -7.96232153	     -2.00571894	     -0.61574471
      3.70000000	     -0.97787778	     -0.90750357	     23.24642748	     -0.17326767	      0.94596934	     -0.43954118	     27.26419683	      3.22107155	     -2.98971756	    -60.14811588	      7.28182855	     -1.83873549	     12.96884774	     -2.23380087	      8.77682754	    -23.70190216	     11.70250824	      1.49068133	     -8.19355840	     -1.83712191	     -1.04226618
      3.71000000	     -0.83593179	     -0.92524663	     22.72919191	     -0.16624617	      0.94673154	     -0.44211983	     27.82818443	      2.86782611	     -3.90117103	    -58.55747122	      7.77703808	     -2.07028204	     12.00147968	     -2.42454579	      8.25827226	    -23.25796289	     12.02529993	      1.32212727	     -8.38406705	     -1.67750628	     -1.48015647
      3.72000000	     -0.71535282	     -0.91773852	     22.21925545	     -0.15920447	      0.94729339	     -0.44463327	     28.32196765	      2.48191066	     -4.84372069	    -56.82488642	      8.21766918	     -2.29011186	     11.06343506	     -2.56990448	      7.72487397	    -22.84791979	     12.35356544	      1.15828275	     -8.56894478	     -1.55345709	     -1.90189019
      3.73000000	     -0.61331437	     -0.88880407	     21.71545696	     -0.15212606	      0.94765430	     -0.44706523	     28.74651662	      2.07862237	     -5.81102664	    -54.96340005	      8.57203432	     -2.55316054	     10.15512860	     -2.67711159	      7.18591963	    -22.47508762	     12.68813258	      1.01075301	     -8.74575672	     -1.46128529	     -2.30520008
      3.74000000	     -0.55324816	     -0.86956067	     21.22433355	     -0.14501561	      0.94775539	     -0.44941257	     29.13717110	      1.69239910	     -6.79009033	    -52.97986817	      8.88339599	     -2.78035382	      9.32038585	     -2.76351495	      6.68584406	    -22.15352890	     13.07318079	      0.89302036	     -8.87327576	     -1.37513221	     -2.68517371
      3.75000000	     -0.49389667	     -0.82636732	     20.73069396	     -0.13784145	      0.94769285	     -0.45163394	     29.44381772	      1.32093633	     -7.75737754	    -50.88679058	      9.08205737	     -3.04548255	      8.50126594	     -2.82551532	      6.15328871	    -21.87635274	     13.46366583	      0.80209863	     -9.00914824	     -1.31864242	     -3.06247286
      3.76000000	     -0.45301910	     -0.77241807	     20.23484689	     -0.13062348	      0.94743492	     -0.45372843	     29.69645922	      0.97237434	     -8.70910668	    -48.69866311	      9.20421596	     -3.29910406	      7.72759766	     -2.86662154	      5.60485757	    -21.65422646	     13.86820868	      0.73916008	     -9.12884738	     -1.28364892	     -3.41290024
      3.77000000	     -0.43207586	     -0.71372316	     19.73476541	     -0.12334949	      0.94698102	     -0.45569823	     29.90009740	      0.65336528	     -9.64608232	    -46.42463623	      9.28427682	     -3.48809924	      7.00102662	     -2.89044522	      5.04867918	    -21.48712133	     14.29171745	      0.69836588	     -9.22527908	     -1.26367842	     -3.72922117
      3.78000000	     -0.41413781	     -0.64020439	     19.22889939	     -0.11602096	      0.94636729	     -0.45754280	     30.03938829	      0.35359904	    -10.58429930	    -44.07893900	      9.33729843	     -3.61000228	      6.30377387	     -2.89429198	      4.48094552	    -21.37957963	     14.72385471	      0.68830108	     -9.31858757	     -1.26315552	     -3.99808756
      3.79000000	     -0.42897518	     -0.59153090	     18.72795070	     -0.10863148	      0.94553584	     -0.45923885	     30.15107625	      0.11986185	    -11.49347551	    -41.65113884	      9.40588520	     -3.61456282	      5.68423734	     -2.90742653	      3.93721853	    -21.33805954	     15.20367781	      0.65646195	     -9.36000438	     -1.25121322	     -4.26382580
      3.80000000	     -0.44302067	     -0.53248682	     18.22639576	     -0.10117400	      0.94456004	     -0.46083376	     30.20083117	     -0.09499269	    -12.42665680	    -39.17454369	      9.48439668	     -3.56749888	      5.09177086	     -2.90445460	      3.39645155	    -21.35774545	     15.69055300	      0.64118752	     -9.39943437	     -1.24807909	     -4.48798605
